<svg id="Capa_1" enable-background="new 0 0 512.041 512.041" height="512" viewBox="0 0 512.041 512.041" width="512" xmlns="http://www.w3.org/2000/svg"><g><path d="m496.015 128.806c2.7-2.917 3.416-7.156 1.824-10.798s-5.189-5.995-9.163-5.995h-40.027l47.365-51.177c3.751-4.054 3.507-10.381-.546-14.132-4.052-3.752-10.38-3.505-14.131.546l-59.939 64.763h-103.357c-5.523 0-10 4.478-10 10s4.477 10 10 10h84.846l-32.518 35.135h-179.591l-32.518-35.135h75.78c5.523 0 10-4.478 10-10s-4.477-10-10-10h-81.278l47.65-81.882c2.778-4.773 1.16-10.895-3.613-13.672-28.021-16.307-60.897-20.676-92.57-12.305-31.674 8.37-58.099 28.412-74.405 56.433-16.306 28.019-20.676 60.895-12.305 92.57s28.412 58.099 56.432 74.404c1.583.921 3.313 1.359 5.021 1.359 3.444 0 6.795-1.781 8.652-4.973l49.595-85.225 164.808 178.071v138.797l-82.449 37.34c-4.29 1.943-6.643 6.616-5.649 11.22s5.065 7.89 9.775 7.89h176.648c4.709 0 8.781-3.286 9.775-7.89s-1.359-9.276-5.649-11.22l-82.45-37.34v-138.795zm-318.164-99.667-38.974 66.972-19.746-74.717c5.595-.924 11.205-1.385 16.786-1.385 14.455 0 28.708 3.08 41.934 9.13zm-78.056-2.636 19.748 74.726-66.98-38.979c11.797-16.35 28.122-28.705 47.232-35.747zm-57.291 53.032 66.981 38.978-74.725 19.748c-3.32-20.093-.643-40.39 7.744-58.726zm33.109 125.288c-16.347-11.795-28.686-28.124-35.729-47.229l74.702-19.742zm354.526-72.809h35.656l-32.518 35.135h-35.656zm-78.28 55.134-47.17 50.966c-3.751 4.054-3.507 10.381.546 14.132 1.924 1.781 4.36 2.661 6.79 2.661 2.689 0 5.371-1.078 7.341-3.207l59.744-64.552h35.656l-102.739 111.007-102.738-111.007zm-81.834 304.893 42.003-19.022 42.003 19.022z"/><circle cx="276.041" cy="122.014" r="10"/></g></svg>