<svg id="Capa_1" enable-background="new 0 0 512 512" height="512" viewBox="0 0 512 512" width="512" xmlns="http://www.w3.org/2000/svg"><path d="m497.181 32.975c8.184 0 14.819-6.635 14.819-14.819s-6.635-14.819-14.819-14.819h-58.166c-5.748 0-10.978 3.325-13.418 8.529l-51.116 109.039h-206.382l57.855-57.889c5.784-5.786 5.783-15.182-.014-20.965-51.661-51.549-135.63-51.552-187.193-.01-.005.005-.01.009-.015.014-.004.004-.007.008-.01.011-51.605 51.61-51.654 135.661.005 187.32 5.784 5.784 15.174 5.786 20.96-.003l60.327-60.363c1.588 10.224 4.148 21.977 8.266 34.13 15.226 44.933 44.689 74.984 85.499 87.396 12.811 37.695 44.985 64.733 83 70.378v118.101h-94.203c-8.184 0-14.819 6.635-14.819 14.819s6.635 14.819 14.819 14.819h218.044c8.184 0 14.819-6.635 14.819-14.819s-6.635-14.819-14.819-14.819h-94.203v-118.101c38.015-5.645 70.189-32.683 83-70.378 40.811-12.412 70.274-42.463 85.499-87.396 11.846-34.96 10.818-66.646 10.768-67.978-.296-7.964-6.838-14.267-14.808-14.267h-83.661l41.22-87.929h48.746zm-447.222 41.291 46.583 46.639h-65.845c2.392-16.557 8.808-32.636 19.262-46.639zm-.005 122.927c-10.458-14.005-16.872-30.09-19.264-46.651h65.887zm67.516-97.276-46.556-46.612c13.974-10.429 30.022-16.843 46.556-19.232zm29.638-65.829c16.552 2.388 32.639 8.785 46.646 19.221l-46.646 46.673zm247.046 229.892c-5.382 1.273-9.608 5.437-10.96 10.801-8.547 33.924-37.989 57.617-71.597 57.617s-63.05-23.693-71.596-57.617c-1.352-5.363-5.577-9.528-10.96-10.801-27.998-6.62-49.185-22.934-63.232-48.59h291.392c-11.932 21.585-31.374 41.101-63.047 48.59zm81.375-113.437c-.743 9.083-2.451 21.66-6.309 35.209h-315.308c-3.813-13.528-5.506-26.116-6.244-35.209z"/></svg>