<?xml version="1.0" encoding="iso-8859-1"?>
<!-- Generator: Adobe Illustrator 19.0.0, SVG Export Plug-In . SVG Version: 6.00 Build 0)  -->
<svg version="1.1" id="Capa_1" xmlns="http://www.w3.org/2000/svg" xmlns:xlink="http://www.w3.org/1999/xlink" x="0px" y="0px"
	 viewBox="0 0 512 512" style="enable-background:new 0 0 512 512;" xml:space="preserve">
<g>
	<g>
		<g>
			<rect x="77.613" y="369.576" width="14.999" height="14.999"/>
			<rect x="52.615" y="369.576" width="14.999" height="14.999"/>
			<rect x="102.61" y="369.576" width="14.999" height="14.999"/>
			<rect x="127.608" y="369.576" width="14.999" height="14.999"/>
			<rect x="440.909" y="369.576" width="14.999" height="14.999"/>
			<rect x="415.911" y="369.576" width="14.999" height="14.999"/>
			<rect x="365.916" y="369.576" width="14.999" height="14.999"/>
			<rect x="390.913" y="369.576" width="14.999" height="14.999"/>
			<polygon points="7.132,185.565 22.07,184.209 16.421,121.947 229.244,121.947 208.636,349.099 37.03,349.099 23.425,199.147 
				8.487,200.502 27.044,405.052 142.759,405.052 142.759,390.053 40.745,390.053 38.39,364.097 207.276,364.097 204.921,390.053 
				157.756,390.053 157.756,405.052 218.621,405.052 245.665,106.948 0,106.948 			"/>
			
				<rect x="41.166" y="269.481" transform="matrix(0.9959 -0.0904 0.0904 0.9959 -26.7548 5.6203)" width="14.999" height="57.354"/>
			<polygon points="266.335,106.948 273.467,185.565 288.405,184.209 282.756,121.947 495.579,121.947 474.971,349.099 
				303.364,349.099 289.76,199.147 274.822,200.502 293.255,403.691 293.38,405.052 409.093,405.052 409.093,390.053 
				307.079,390.053 304.724,364.097 473.61,364.097 471.255,390.053 424.091,390.053 424.091,405.052 484.955,405.052 512,106.948 
							"/>
			
				<rect x="190.874" y="179.394" transform="matrix(0.9959 0.0904 -0.0904 0.9959 21.2149 -17.0084)" width="14.999" height="92.611"/>
			
				<rect x="185.132" y="281.735" transform="matrix(-0.9959 -0.0904 0.0904 -0.9959 358.3269 594.6986)" width="14.999" height="14.998"/>
			
				<rect x="182.874" y="306.63" transform="matrix(-0.9959 -0.0904 0.0904 -0.9959 351.5695 644.1807)" width="14.998" height="14.998"/>
			
				<rect x="453.812" y="205.158" transform="matrix(-0.9959 -0.0904 0.0904 -0.9959 896.9136 567.6085)" width="14.999" height="116.668"/>
			
				<rect x="462.887" y="155.6" transform="matrix(0.9959 0.0904 -0.0904 0.9959 16.6706 -41.8561)" width="14.998" height="14.999"/>
			
				<rect x="460.652" y="180.46" transform="matrix(-0.9959 -0.0904 0.0904 -0.9959 917.3939 417.4689)" width="14.999" height="14.998"/>
			<rect x="321.43" y="316.601" width="54.995" height="14.999"/>
		</g>
	</g>
</g>
<g>
</g>
<g>
</g>
<g>
</g>
<g>
</g>
<g>
</g>
<g>
</g>
<g>
</g>
<g>
</g>
<g>
</g>
<g>
</g>
<g>
</g>
<g>
</g>
<g>
</g>
<g>
</g>
<g>
</g>
</svg>
