<svg id="Capa_1" enable-background="new 0 0 512 512" height="512" viewBox="0 0 512 512" width="512" xmlns="http://www.w3.org/2000/svg"><g><path d="m338.034 144.851c7.943 2.752 16.482 2.809 24.738 0 11.12-3.773 21.816-12.738 30.184-27.206.057-.142.17-.284.227-.426.369-.624.71-1.22 1.05-1.844l-46.355 12.397zm63.603-47.007c2.836-8.993 4.284-18.156 4.482-27.603l-29.617 7.943-18.014 31.235zm-54.298-69.192c16.341-9.958 34.979-15.688 54.128-16.794 2.922-.17 5.873 1.504 7.121 4.199 8.596 17.107 12.936 36.057 12.454 55.149-.284 12.596-2.667 25.049-7.064 36.823h45.39c4.482 0 7.943 3.887 7.461 8.312l-14.185 161.731c-.369 4.113-4 7.177-8.113 6.808-4.142-.34-7.206-3.972-6.837-8.114l6.553-74.893c-4.794-1.447-9.646-3.092-14.525-4.738-12.965-4.369-25.901-8.738-38.326-8.738-12.397 0-25.362 4.369-38.298 8.738-10.156 3.433-20.284 6.837-30.61 8.511-4.823.794-9.73 1.191-14.61 1.021-.227 1.021-.511 2.015-.88 3.007-1.872 4.879-5.56 9.078-10.666 11.376l-46.099 20.737c-5.106 2.298-10.695 2.327-15.546.482-4.908-1.872-9.078-5.56-11.377-10.667l-17.73-39.376c-5.021 1.446-10.128 3.177-15.263 4.908-4.879 1.646-9.73 3.29-14.553 4.738l21.759 247.745h224.993l12.198-139.007c.369-4.142 4-7.177 8.114-6.837 4.142.369 7.206 4.001 6.837 8.114-4.738 53.957-9.476 107.915-14.185 161.872-.937 10.582-5.419 20.255-12.369 27.206-6.807 6.808-15.942 11.035-26.495 11.035h-173.192c-10.553 0-19.688-4.227-26.496-11.036-6.95-6.95-11.433-16.624-12.369-27.206-7.092-80.908-14.185-161.815-21.277-242.723-12.879.369-26.071-1.617-38.297-5.589-11.66-3.773-22.497-9.361-32.199-16.397-3.348-2.44-4.085-7.121-1.646-10.468 2.411-3.376 7.092-4.113 10.44-1.674 8.454 6.128 17.9 11.007 28.028 14.298 10.553 3.432 21.248 4.964 32.34 4.879l-1.503-17.39c-22.866-.085-43.574-9.362-58.554-24.369-15.063-15.035-24.369-35.83-24.369-58.78 0-23.007 9.362-43.83 24.454-58.865 15.036-15.007 35.773-24.284 58.695-24.284 22.95 0 43.717 9.305 58.752 24.341 13.815 13.787 22.326 31.858 24.057 51.29h17.447c-1.844-24.766-12.624-47.036-29.163-63.574-18.184-18.185-43.319-29.447-71.092-29.447s-52.908 11.262-71.092 29.447c-18.185 18.184-29.447 43.319-29.447 71.092 0 10.866 1.731 21.305 4.88 31.064 3.291 10.127 8.17 19.574 14.297 27.999 2.44 3.376 1.674 8.057-1.674 10.468-3.347 2.44-8.028 1.702-10.468-1.645-7.036-9.702-12.624-20.539-16.397-32.199-3.66-11.262-5.646-23.263-5.646-35.688 0-31.915 12.936-60.794 33.844-81.702 20.909-20.906 49.789-33.842 81.703-33.842 31.915 0 60.794 12.936 81.702 33.844 19.263 19.262 31.745 45.276 33.589 74.184h20.936c-.113-12.851 3.83-25.532 10.014-36.993 9.362-17.333 23.632-32.141 40.426-42.383zm-13.362 30.128 11.546 43.177 18.043-31.234-7.915-29.589-.511.313c-7.745 4.709-14.893 10.525-21.163 17.333zm.965 61.532-12.425-46.355c-7.433 12.086-12.426 26.554-10.014 40.852 1.504 9.021 5.929 16.794 12.595 22.553zm70.27-65.333c-.88-6.412-2.355-12.709-4.426-18.866l-13.674 23.717zm-35.887-20.709 4.851 18.071 13.674-23.688c-6.355 1.276-12.568 3.177-18.525 5.617zm-70.327 88.794c-43.376 0-86.751 0-130.127 0l5.56 63.546c3.745-1.163 7.433-2.412 11.149-3.66 5.022-1.702 10.071-3.404 15.206-4.879-.142-2.808.34-5.561 1.305-8.142 1.873-4.936 5.787-9.249 10.667-11.376l46.071-20.738c5.107-2.297 10.695-2.297 15.575-.454 4.879 1.844 9.078 5.561 11.376 10.667l19.575 43.489c4.255.341 8.397.199 12.624-.369 9.929-1.305 20.142-4.737 30.355-8.199 14.185-4.794 28.341-9.56 43.064-9.56s28.907 4.766 43.064 9.56c3.716 1.248 7.404 2.497 11.149 3.66l5.56-63.546h-44.085c-8.794 15.971-21.872 29.986-39.489 35.972-14.695 5.021-30.156 3.149-42.809-3.745-12.172-6.637-21.761-17.928-25.79-32.226zm44.965 96.17 58.043 4.993c6.128.511 11.489 3.489 15.177 7.886s5.73 10.156 5.22 16.256l-4.965 58.042c-.539 6.128-3.518 11.49-7.915 15.178-4.397 3.716-10.157 5.73-16.255 5.22l-57.816-4.936c-5.844-.312-11.66-3.489-15.404-7.943-3.773-4.454-5.872-10.667-5.191-16.511l4.936-57.787c.539-6.127 3.518-11.461 7.915-15.178 4.397-3.688 10.156-5.73 16.255-5.22zm56.823 19.943-58.071-4.964c-2.042-.198-3.972.482-5.39 1.674-1.418 1.22-2.412 2.95-2.581 4.993l-4.965 58.042c-.17 2.043.482 3.972 1.702 5.39 1.192 1.418 2.951 2.412 4.965 2.582l58.071 4.965c2.043.17 3.972-.482 5.39-1.703 1.418-1.191 2.411-2.95 2.581-4.964l4.965-58.071c.17-2.043-.51-3.943-1.702-5.39-1.192-1.419-2.951-2.383-4.965-2.554zm-107.915-38.922-20.766-46.071c-.596-1.362-1.702-2.326-2.979-2.809-1.305-.511-2.78-.511-4.142.113l-45.673 20.568c-3.461 1.815-4.284 4.056-2.922 7.716l20.567 45.646c.624 1.362 1.702 2.326 3.007 2.837 1.305.482 2.78.482 4.114-.113l46.099-20.766c1.333-.596 2.327-1.702 2.809-2.979.51-1.361.453-2.837-.114-4.142zm54.524 184.029c-11.375 8.936-25.106 13.419-38.836 13.419-16.085 0-32.17-6.128-44.426-18.412-11.83-11.83-18.411-27.717-18.411-44.454 0-13.73 4.482-27.461 13.418-38.808l-10.298-10.298c-9.986 12.113-15.716 26.553-17.22 41.305-1.759 17.418 2.383 35.348 12.454 50.497 2.269 3.461 1.333 8.113-2.1 10.383-3.461 2.298-8.114 1.333-10.383-2.1-12.001-18.099-16.965-39.46-14.865-60.255 2.071-20.454 10.921-40.369 26.553-56 2.922-2.922 7.688-2.922 10.61 0l119.943 119.943c2.951 2.951 2.951 7.688 0 10.639-15.631 15.631-35.517 24.482-55.971 26.524-20.794 2.1-42.185-2.836-60.255-14.837-3.461-2.297-4.397-6.922-2.128-10.382 2.298-3.461 6.95-4.397 10.383-2.1 15.148 10.042 33.078 14.185 50.524 12.425 14.752-1.475 29.163-7.205 41.277-17.219zm-31.318-2.185c7.291-1.163 14.355-4 20.596-8.539l-20.596-20.596zm-25.589-54.723-20.653-20.652c-4.539 6.27-7.404 13.333-8.539 20.652zm-29.191 14.95c1.163 7.291 4 14.383 8.539 20.625l20.653-20.625zm19.148 31.234c6.241 4.539 13.333 7.376 20.624 8.539v-29.135zm-52.056-265.532c-1.447-13.163-6.638-25.22-14.525-35.063l-35.064 35.063zm-25.135-45.673c-9.844-7.887-21.9-13.078-35.064-14.525v49.589zm-50.099-14.525c-13.163 1.447-25.22 6.639-35.063 14.525l35.063 35.064zm-45.674 25.135c-7.886 9.844-13.078 21.872-14.525 35.063h49.589zm-14.525 50.099c1.447 13.163 6.639 25.22 14.525 35.063l35.064-35.063zm25.135 45.673c11.29 9.05 25.532 14.582 41.021 14.922l-4.511-51.433zm303.121 295.916h-222.383l.709 7.83c.595 7.007 3.489 13.362 8 17.872 4.085 4.085 9.589 6.639 15.886 6.639h173.192c6.298 0 11.802-2.553 15.886-6.639 4.511-4.51 7.404-10.865 8-17.872z"/></g></svg>