<svg id="Capa_1" enable-background="new 0 0 507.964 507.964" height="512" viewBox="0 0 507.964 507.964" width="512" xmlns="http://www.w3.org/2000/svg"><g><g><path d="m399.168 35.271c-1.545-1.602-3.674-2.507-5.899-2.509h-119.732l-7.261-26.72c-1.173-4.315-5.591-6.892-9.924-5.786l-79.146 20.176c-4.392 1.129-7.037 5.605-5.907 9.996.006.024.012.047.019.071l.614 2.263h-57.229c-4.531.003-8.202 3.68-8.198 8.211 0 .093.002.186.005.279l15.075 419.191c.778 26.543 22.574 47.626 49.128 47.52h165.604c26.502.095 48.273-20.909 49.128-47.397l16.007-419.294c.09-2.228-.735-4.396-2.284-6.001zm-146.585-17.144 3.974 14.635h-61.377zm8.419 31.021 8.521 31.369-63.292 16.96-12.945-48.329zm-84.687 0 16.212 60.486c.961 3.578 4.202 6.067 7.906 6.073.719-.002 1.435-.095 2.13-.277l79.135-21.21c4.374-1.178 6.965-5.679 5.788-10.053 0-.001-.001-.003-.001-.004l-9.504-35.015h72.816l-4.609 119.978-53.634-53.645c-3.204-3.195-8.389-3.195-11.593 0l-57.936 57.936c-3.195 3.204-3.195 8.389 0 11.593l55.14 55.13-42.83-11.481c-4.371-1.172-8.864 1.421-10.035 5.792 0 .002-.001.003-.001.005l-21.21 79.135c-1.172 4.371 1.421 8.864 5.792 10.035.002 0 .003.001.005.001l79.135 21.21c.696.182 1.411.275 2.13.277 3.705-.006 6.945-2.495 7.906-6.073l21.21-79.135c1.172-4.371-1.421-8.864-5.792-10.035-.002 0-.003-.001-.005-.001l-22.869-6.124c.338-.241.657-.508.952-.799l52.825-52.835-9.064 235.921h-165.601l-13.631-376.885zm156.786 130.066-46.342 46.342-46.342-46.342 46.342-46.342zm-30.786 84.359-16.96 63.312-63.312-16.96 16.96-63.312zm66.754 196.389c-.561 17.666-15.077 31.678-32.752 31.615h-165.604c-17.708.068-32.24-13.996-32.752-31.697l-14.768-410.732h17.492l13.652 377.427c.256 8.849 7.523 15.88 16.376 15.843h165.604c8.829.036 16.086-6.957 16.376-15.782l14.512-377.488h17.554z"/><path d="m229.407 450.612h-65.545c-4.525 0-8.193 3.668-8.193 8.193s3.668 8.193 8.193 8.193h65.545c4.525 0 8.193-3.668 8.193-8.193s-3.668-8.193-8.193-8.193z"/><path d="m262.179 450.612h-8.193c-4.525 0-8.193 3.668-8.193 8.193s3.668 8.193 8.193 8.193h8.193c4.525 0 8.193-3.668 8.193-8.193s-3.668-8.193-8.193-8.193z"/></g></g></svg>